<svg xmlns="http://www.w3.org/2000/svg" viewBox="0 0 64 64">
  <!-- Shadow -->
  <ellipse cx="32" cy="58" rx="18" ry="4" fill="#d1d5db"/>

  <!-- Notebook -->
  <rect x="14" y="10" width="36" height="44" rx="5" fill="#ffffff" stroke="#d1d5db" stroke-width="2"/>

  <!-- Top Header -->
  <rect x="14" y="10" width="36" height="10" rx="5" fill="#ef4444"/>

  <!-- Rings -->
  <circle cx="20" cy="10" r="2.5" fill="#374151"/>
  <circle cx="28" cy="10" r="2.5" fill="#374151"/>
  <circle cx="36" cy="10" r="2.5" fill="#374151"/>
  <circle cx="44" cy="10" r="2.5" fill="#374151"/>

  <!-- Task 1 -->
  <circle cx="22" cy="28" r="4" fill="#22c55e"/>
  <path d="M20 28l2 2 4-5" fill="none" stroke="#fff" stroke-width="2" stroke-linecap="round" stroke-linejoin="round"/>
  <rect x="30" y="25.5" width="14" height="3" rx="1.5" fill="#3b82f6"/>

  <!-- Task 2 -->
  <circle cx="22" cy="38" r="4" fill="#22c55e"/>
  <path d="M20 38l2 2 4-5" fill="none" stroke="#fff" stroke-width="2" stroke-linecap="round" stroke-linejoin="round"/>
  <rect x="30" y="35.5" width="14" height="3" rx="1.5" fill="#3b82f6"/>

  <!-- Task 3 -->
  <circle cx="22" cy="48" r="4" fill="none" stroke="#9ca3af" stroke-width="2"/>
  <rect x="30" y="46.5" width="14" height="3" rx="1.5" fill="#9ca3af"/>

  <!-- Large Check -->
  <circle cx="48" cy="48" r="10" fill="#22c55e"/>
  <path d="M43.5 48l3 3 6-7" fill="none" stroke="#fff" stroke-width="2.5" stroke-linecap="round" stroke-linejoin="round"/>
</svg>